<?xml version="1.0" encoding="iso-8859-1"?>
<!-- Generator: Adobe Illustrator 19.0.0, SVG Export Plug-In . SVG Version: 6.00 Build 0)  -->
<svg version="1.1" id="Capa_1" xmlns="http://www.w3.org/2000/svg" xmlns:xlink="http://www.w3.org/1999/xlink" x="0px" y="0px"
	 viewBox="0 0 458.1 458.1" style="enable-background:new 0 0 458.1 458.1;" xml:space="preserve">
<g>
	<g>
		<path fill="#fc6432" d="M70.4,140.312v-72c0-4.8-3.2-8-8-8c-4.8,0-8,3.2-8,8v71.2c0,8-4.8,14.4-11.2,17.6v-88.8c0-4.8-3.2-8-8-8s-8,3.2-8,8v89.6
			c-6.4-3.2-11.2-9.6-11.2-17.6v-72c0-4.8-3.2-8-8-8s-8,3.2-8,8v71.2c0,16.8,12,31.2,27.2,34.4v54.4H24c-8,0-14.4,7.2-14.4,16v132.8
			c0,8.8,6.4,16,14.4,16h21.6c8,0,14.4-7.2,14.4-16v-132c0-8.8-6.4-16-14.4-16h-2.4v-54.4C59.2,170.712,70.4,157.112,70.4,140.312z
			 M44.8,244.312v132.8H44H25.6v-132.8H44.8z"/>
	</g>
</g>
<g>
	<g>
		<path fill="#fc6432" d="M414.4,60.312c-2.4-1.6-5.6-0.8-8,0c-2.4,1.6-4,4-4,7.2v174.4c0,0.8,0,2.4,0.8,3.2c-0.8,1.6-0.8,3.2-0.8,4.8v132.8
			c0,8.8,6.4,16,14.4,16h21.6c8,0,14.4-7.2,14.4-16v-133.6v-0.8c2.4-1.6,4.8-4,4.8-7.2C458.4,225.912,463.2,85.912,414.4,60.312z
			 M437.6,381.912h-19.2v-132.8h19.2V381.912z M442.4,233.112h-3.2h-20V86.31C440.077,118.253,443.19,194.402,442.4,233.112z"/>
	</g>
</g>
<g>
	<g>
		<path fill="#fc6432" d="M233.6,60.312c-90.4,0-163.2,73.6-163.2,163.2s73.6,163.2,163.2,163.2s163.2-72.8,163.2-163.2S323.2,60.312,233.6,60.312z
			 M233.6,371.512c-81.6,0-147.2-66.4-147.2-147.2s65.6-148,147.2-148s147.2,66.4,147.2,147.2S314.4,371.512,233.6,371.512z"/>
	</g>
</g>
<g>
	<g>
		<path fill="#fc6432" d="M233.6,123.512c-55.2,0-100.8,44.8-100.8,100.8s45.6,100,100.8,100c55.2,0,100.8-44.8,100.8-100.8
			C334.4,167.512,288.8,123.512,233.6,123.512z M233.6,308.312c-46.4,0-84.8-37.6-84.8-84.8c0-47.2,37.6-84.8,84.8-84.8
			c47.2,0,84.8,37.6,84.8,84.8C318.4,270.712,280,308.312,233.6,308.312z"/>
	</g>
</g>
<g>
</g>
<g>
</g>
<g>
</g>
<g>
</g>
<g>
</g>
<g>
</g>
<g>
</g>
<g>
</g>
<g>
</g>
<g>
</g>
<g>
</g>
<g>
</g>
<g>
</g>
<g>
</g>
<g>
</g>
</svg>
