<?xml version="1.0" encoding="iso-8859-1"?>
<!-- Generator: Adobe Illustrator 18.0.0, SVG Export Plug-In . SVG Version: 6.00 Build 0)  -->
<!DOCTYPE svg PUBLIC "-//W3C//DTD SVG 1.1//EN" "http://www.w3.org/Graphics/SVG/1.1/DTD/svg11.dtd">
<svg version="1.1" id="Capa_1" xmlns="http://www.w3.org/2000/svg" xmlns:xlink="http://www.w3.org/1999/xlink" x="0px" y="0px"
	 viewBox="0 0 471.73 471.73" style="enable-background:new 0 0 471.73 471.73;" xml:space="preserve">
<g>
	<path fill="#fc6432" d="M270.2,225.505l157.946-169.93c8.948-9.628,11.353-23.644,6.1-35.713C428.993,7.794,417.103,0,403.933,0L67.799,0.006
		c-13.171,0-25.077,7.803-30.299,19.841c-5.269,12.052-2.882,26.078,6.084,35.735L201.5,225.505
		c5.145,5.538,11.599,9.489,18.591,12.008v191.163c-44.931,1.718-79.188,10.62-79.188,21.365c0,11.977,42.513,21.689,94.977,21.689
		c52.434,0,94.947-9.712,94.947-21.689c0-10.745-34.272-19.647-79.189-21.365v-191.18
		C258.615,234.987,265.069,231.036,270.2,225.505z M247.094,204.034c-5.79,6.222-16.698,6.222-22.487,0L66.689,34.118
		c-0.414-0.455-0.523-1.093-0.276-1.67c0.23-0.54,0.786-0.895,1.387-0.895l336.134-0.006c0.601,0,1.154,0.361,1.386,0.893
		c0.245,0.569,0.139,1.216-0.278,1.664L247.094,204.034z"/>
	<path fill="#fc6432" d="M324.542,68.383h-39.478c-5.93-10.998-15.496-20.355-27.557-26.401c-9.258-4.651-19.377-7.109-29.252-7.109
		c-19.516,0-35.781,9.212-43.514,24.63c-1.433,2.866-2.48,5.845-3.204,8.88h-34.38c-2.773,0-5.27,1.641-6.378,4.175
		c-1.108,2.533-0.601,5.483,1.279,7.508l93.792,100.908l93.79-100.908c1.88-2.025,2.388-4.975,1.278-7.508
		C329.811,70.023,327.315,68.383,324.542,68.383z M198.835,66.574c5.176-10.306,16.527-15.928,29.404-15.928
		c7.211,0,14.865,1.756,22.198,5.429c20.44,10.259,30.483,31.586,22.426,47.637c-5.159,10.296-16.511,15.918-29.39,15.918
		c-7.192,0-14.863-1.755-22.196-5.437C200.837,103.942,190.794,82.615,198.835,66.574z"/>
	<path fill="#fc6432" d="M233.246,83.478c4.344-8.641,1.956-18.592-5.282-22.234c-7.287-3.644-16.684,0.4-21.027,9.033
		c-4.313,8.634-1.939,18.584,5.346,22.228C219.552,96.148,228.934,92.112,233.246,83.478z"/>
</g>
<g>
</g>
<g>
</g>
<g>
</g>
<g>
</g>
<g>
</g>
<g>
</g>
<g>
</g>
<g>
</g>
<g>
</g>
<g>
</g>
<g>
</g>
<g>
</g>
<g>
</g>
<g>
</g>
<g>
</g>


</svg>


